<svg xmlns="http://www.w3.org/2000/svg" class="circle-maket" viewBox="250 240 440 440"><polygon fill="#5168ab" transform="translate(287, 271) rotate(0, 287, 271)" points="278.94936642355776 77.27079416956357 160.08092453548565 35.82555599657511 154.61784654913217 235.7354805544303 269.541668470863 227.60021656168644 160.08092453548565 227.60021656168644 0 67.17106481232084 180.5188295377065 253 180.5188295377065 67.17106481232084 110 67.17106481232084 6.462144927240349 155.87802255890483 216.3262051484995 146 216.3262051484995 0 277.9113271547868 6.462144927240349 195.72801986752143 75"></polygon><polygon fill="#5168ab" transform="translate(232, 250) rotate(90, 232, 250)" points="278.94936642355776 77.27079416956357 160.08092453548565 35.82555599657511 154.61784654913217 235.7354805544303 269.541668470863 227.60021656168644 160.08092453548565 227.60021656168644 0 67.17106481232084 180.5188295377065 253 180.5188295377065 67.17106481232084 110 67.17106481232084 6.462144927240349 155.87802255890483 216.3262051484995 146 216.3262051484995 0 277.9113271547868 6.462144927240349 195.72801986752143 75"></polygon><polygon fill="#5168ab" transform="translate(237, 232) rotate(180, 237, 232)" points="278.94936642355776 77.27079416956357 160.08092453548565 35.82555599657511 154.61784654913217 235.7354805544303 269.541668470863 227.60021656168644 160.08092453548565 227.60021656168644 0 67.17106481232084 180.5188295377065 253 180.5188295377065 67.17106481232084 110 67.17106481232084 6.462144927240349 155.87802255890483 216.3262051484995 146 216.3262051484995 0 277.9113271547868 6.462144927240349 195.72801986752143 75"></polygon><polygon fill="#5168ab" transform="translate(253, 222) rotate(270, 253, 222)" points="278.94936642355776 77.27079416956357 160.08092453548565 35.82555599657511 154.61784654913217 235.7354805544303 269.541668470863 227.60021656168644 160.08092453548565 227.60021656168644 0 67.17106481232084 180.5188295377065 253 180.5188295377065 67.17106481232084 110 67.17106481232084 6.462144927240349 155.87802255890483 216.3262051484995 146 216.3262051484995 0 277.9113271547868 6.462144927240349 195.72801986752143 75"></polygon></svg>